<svg width="1092" height="622" viewBox="0 0 1092 622" fill="none" xmlns="http://www.w3.org/2000/svg">
<rect x="0.240234" width="1091" height="622" fill="black"/>
<line x1="607" y1="398" x2="986" y2="398" stroke="#FCD0F4" strokeWidth="58"/>
<line x1="926" y1="509" x2="986" y2="509" stroke="#FCD0F4" strokeWidth="58"/>
<path d="M248.11 295.4C252.51 303 256.21 310.9 259.21 319.1H259.51C252.51 319.1 244.71 319.4 236.11 320C227.51 320.4 218.71 320.3 209.71 319.7H209.41C207.41 315.1 204.91 309.6 201.91 303.2C198.91 296.8 195.61 290.1 192.01 283.1C188.41 276.1 184.51 269.2 180.31 262.4C176.11 255.6 171.91 249.6 167.71 244.4L167.11 243.5C166.51 248.1 166.21 253.8 166.21 260.6C166.21 267.2 166.31 274.1 166.51 281.3C166.91 288.3 167.31 295 167.71 301.4C168.11 307.8 168.41 312.9 168.61 316.7C165.21 318.1 160.71 319 155.11 319.4C149.71 319.8 144.31 320 138.91 320C133.51 320.2 128.61 320.2 124.21 320C120.01 319.8 117.41 319.8 116.41 320C116.81 320 117.11 317.3 117.31 311.9C117.51 306.3 117.61 299 117.61 290C117.61 281 117.61 270.7 117.61 259.1C117.61 247.3 117.51 235.2 117.31 222.8C117.31 210.2 117.11 197.8 116.71 185.6C116.51 173.2 116.31 161.9 116.11 151.7C115.91 141.3 115.61 132.5 115.21 125.3C115.01 117.9 114.71 112.9 114.31 110.3C125.51 108.7 137.81 107.2 151.21 105.8C164.61 104.4 178.61 104.5 193.21 106.1C205.01 106.7 215.61 110.1 225.01 116.3C234.41 122.5 241.71 130.2 246.91 139.4C252.11 148.6 254.81 158.8 255.01 170C255.41 181 252.51 191.7 246.31 202.1C242.51 209.3 237.41 215.3 231.01 220.1C224.81 224.9 216.91 227.6 207.31 228.2H206.11H205.81V228.5C210.01 235.9 214.61 243.3 219.61 250.7C224.61 257.9 229.51 265.2 234.31 272.6C239.11 280 243.71 287.6 248.11 295.4ZM178.81 147.8C172.01 148 165.11 149.5 158.11 152.3C158.31 154.9 158.41 157.9 158.41 161.3C158.61 164.5 158.71 167.8 158.71 171.2C158.71 174.6 158.71 177.9 158.71 181.1C158.91 184.3 159.21 187 159.61 189.2H159.91C164.51 189.6 169.51 189.9 174.91 190.1C180.31 190.3 185.41 190 190.21 189.2C194.01 188.4 196.91 186.5 198.91 183.5C201.11 180.3 202.41 176.9 202.81 173.3C203.21 169.5 202.81 165.8 201.61 162.2C200.41 158.4 198.41 155.4 195.61 153.2C191.21 149.2 185.61 147.4 178.81 147.8ZM290.584 169.1C295.184 169.3 300.684 169.3 307.084 169.1H312.184V170C311.984 194.2 311.484 218.9 310.684 244.1C310.084 269.3 310.484 294 311.884 318.2C310.884 319.4 308.384 320 304.384 320C300.384 320.2 295.984 320.2 291.184 320C286.584 320 282.184 319.9 277.984 319.7C273.784 319.5 270.984 319.6 269.584 320C270.584 307.4 270.984 294.6 270.784 281.6C270.784 268.6 270.584 255.7 270.184 242.9C269.784 230.1 269.584 217.5 269.584 205.1C269.584 192.5 270.184 180.3 271.384 168.5V168.2C272.184 168 273.484 168 275.284 168.2C277.284 168.4 278.784 168.5 279.784 168.5C282.384 168.7 285.984 168.9 290.584 169.1ZM270.484 127.1C270.084 120.7 269.984 112.9 270.184 103.7L310.984 104.6C310.984 105.8 310.984 108 310.984 111.2C311.184 114.2 311.284 117.6 311.284 121.4C311.484 125 311.584 128.8 311.584 132.8C311.784 136.6 311.884 140 311.884 143C311.084 144.2 309.184 145 306.184 145.4C303.384 145.8 299.984 146 295.984 146C292.184 145.8 288.084 145.6 283.684 145.4C279.284 145 275.184 144.9 271.384 145.1C271.384 139.3 271.084 133.3 270.484 127.1ZM410.293 121.7C410.493 119.5 410.693 116.4 410.893 112.4V109.1C410.893 108.9 412.193 108.7 414.793 108.5C417.593 108.1 420.893 107.9 424.693 107.9C428.693 107.7 432.893 107.7 437.293 107.9C441.693 107.9 445.493 108.2 448.693 108.8V128.6C448.693 162 449.193 195 450.193 227.6C451.193 260.2 451.293 290.9 450.493 319.7C444.293 319.7 437.493 319.8 430.093 320C422.693 320.4 415.993 320.2 409.993 319.4C409.793 319 409.693 318.3 409.693 317.3C409.693 315.3 409.593 313.7 409.393 312.5C409.393 311.3 409.393 309.6 409.393 307.4C408.993 306.4 408.493 305.7 407.893 305.3C407.493 304.7 406.993 305 406.393 306.2C403.393 312.2 399.393 316.1 394.393 317.9C389.393 319.5 384.093 319.9 378.493 319.1C367.093 318.3 358.093 315.4 351.493 310.4C344.893 305.2 339.893 298.7 336.493 290.9C333.293 282.9 331.093 274 329.893 264.2C328.893 254.4 328.293 244.5 328.093 234.5C328.093 227.5 328.493 220.7 329.293 214.1C330.293 207.5 331.693 201.5 333.493 196.1C335.493 190.5 337.993 185.8 340.993 182C344.193 178 347.993 175.2 352.393 173.6C357.793 171.6 363.693 170.4 370.093 170C376.693 169.4 382.893 169.4 388.693 170C394.493 170.4 399.393 171.3 403.393 172.7C407.393 174.1 409.593 175.7 409.993 177.5C409.793 168.1 409.693 160.5 409.693 154.7C409.693 148.9 409.693 144.3 409.693 140.9C409.693 137.3 409.693 134.6 409.693 132.8C409.893 130.8 409.993 129 409.993 127.4C410.193 125.6 410.293 123.7 410.293 121.7ZM373.093 209.6C368.293 213.2 365.393 218.5 364.393 225.5C363.393 228.3 362.793 231.2 362.593 234.2C362.393 237.2 362.293 240.1 362.293 242.9C362.293 247.9 362.893 252.8 364.093 257.6C365.293 262.2 367.093 266.4 369.493 270.2C371.893 273.8 374.793 276.7 378.193 278.9C381.593 281.1 385.393 282.2 389.593 282.2C394.593 282.2 398.493 281.1 401.293 278.9C404.293 276.7 406.493 273.7 407.893 269.9C409.493 266.1 410.393 261.6 410.593 256.4C410.993 251 411.193 245.1 411.193 238.7C411.193 230.9 410.993 224.8 410.593 220.4C410.393 215.8 409.693 212.3 408.493 209.9C407.293 207.5 405.393 206 402.793 205.4C400.393 204.6 397.093 204.2 392.893 204.2C384.693 204.2 378.093 206 373.093 209.6ZM549.16 121.7C549.36 119.5 549.56 116.4 549.76 112.4V109.1C549.76 108.9 551.06 108.7 553.66 108.5C556.46 108.1 559.76 107.9 563.56 107.9C567.56 107.7 571.76 107.7 576.16 107.9C580.56 107.9 584.36 108.2 587.56 108.8V128.6C587.56 162 588.06 195 589.06 227.6C590.06 260.2 590.16 290.9 589.36 319.7C583.16 319.7 576.36 319.8 568.96 320C561.56 320.4 554.86 320.2 548.86 319.4C548.66 319 548.56 318.3 548.56 317.3C548.56 315.3 548.46 313.7 548.26 312.5C548.26 311.3 548.26 309.6 548.26 307.4C547.86 306.4 547.36 305.7 546.76 305.3C546.36 304.7 545.86 305 545.26 306.2C542.26 312.2 538.26 316.1 533.26 317.9C528.26 319.5 522.96 319.9 517.36 319.1C505.96 318.3 496.96 315.4 490.36 310.4C483.76 305.2 478.76 298.7 475.36 290.9C472.16 282.9 469.96 274 468.76 264.2C467.76 254.4 467.16 244.5 466.96 234.5C466.96 227.5 467.36 220.7 468.16 214.1C469.16 207.5 470.56 201.5 472.36 196.1C474.36 190.5 476.86 185.8 479.86 182C483.06 178 486.86 175.2 491.26 173.6C496.66 171.6 502.56 170.4 508.96 170C515.56 169.4 521.76 169.4 527.56 170C533.36 170.4 538.26 171.3 542.26 172.7C546.26 174.1 548.46 175.7 548.86 177.5C548.66 168.1 548.56 160.5 548.56 154.7C548.56 148.9 548.56 144.3 548.56 140.9C548.56 137.3 548.56 134.6 548.56 132.8C548.76 130.8 548.86 129 548.86 127.4C549.06 125.6 549.16 123.7 549.16 121.7ZM511.96 209.6C507.16 213.2 504.26 218.5 503.26 225.5C502.26 228.3 501.66 231.2 501.46 234.2C501.26 237.2 501.16 240.1 501.16 242.9C501.16 247.9 501.76 252.8 502.96 257.6C504.16 262.2 505.96 266.4 508.36 270.2C510.76 273.8 513.66 276.7 517.06 278.9C520.46 281.1 524.26 282.2 528.46 282.2C533.46 282.2 537.36 281.1 540.16 278.9C543.16 276.7 545.36 273.7 546.76 269.9C548.36 266.1 549.26 261.6 549.46 256.4C549.86 251 550.06 245.1 550.06 238.7C550.06 230.9 549.86 224.8 549.46 220.4C549.26 215.8 548.56 212.3 547.36 209.9C546.16 207.5 544.26 206 541.66 205.4C539.26 204.6 535.96 204.2 531.76 204.2C523.56 204.2 516.96 206 511.96 209.6ZM608.527 156.5C608.527 138.3 609.427 120.1 611.227 101.9L652.027 102.8C652.027 111 651.927 120.9 651.727 132.5C651.527 144.1 651.327 156.5 651.127 169.7C650.927 182.9 650.727 196.6 650.527 210.8C650.527 225 650.527 238.7 650.527 251.9C650.527 265.1 650.627 277.5 650.827 289.1C651.027 300.5 651.327 310.2 651.727 318.2C650.727 319.4 648.227 320 644.227 320C640.227 320.2 635.827 320.2 631.027 320C626.427 320 622.027 319.9 617.827 319.7C613.627 319.5 610.827 319.6 609.427 320C610.827 302 611.327 283.9 610.927 265.7C610.727 247.5 610.327 229.3 609.727 211.1C609.127 192.9 608.727 174.7 608.527 156.5ZM717.744 245.6C713.344 245.4 710.144 245.1 708.144 244.7V250.1C708.344 256.1 708.544 261 708.744 264.8C709.144 268.6 710.444 272.3 712.644 275.9C715.044 280.5 718.444 283.9 722.844 286.1C727.244 288.3 731.544 289 735.744 288.2C739.944 287.4 743.444 285 746.244 281C749.244 276.8 750.544 270.6 750.144 262.4C752.144 262.6 754.844 262.7 758.244 262.7C761.644 262.5 765.144 262.3 768.744 262.1C772.544 261.9 776.144 261.9 779.544 262.1C782.944 262.1 785.744 262.4 787.944 263C787.544 268.2 787.144 273.3 786.744 278.3C786.344 283.3 785.844 288 785.244 292.4C784.644 296.6 783.844 300.3 782.844 303.5C782.044 306.5 780.944 308.6 779.544 309.8C776.144 314.6 771.744 318 766.344 320C760.944 322 755.044 323.2 748.644 323.6C742.244 324 735.644 324 728.844 323.6C722.244 323.2 716.144 323 710.544 323C704.944 322.2 699.744 320.4 694.944 317.6C689.544 313.8 685.044 308.9 681.444 302.9C677.844 296.7 674.944 290 672.744 282.8C670.544 275.4 669.044 267.6 668.244 259.4C667.444 251.2 667.244 243 667.644 234.8C668.244 227.4 668.844 220.3 669.444 213.5C670.244 206.5 671.844 199.7 674.244 193.1C676.844 187.3 680.844 182.4 686.244 178.4C691.644 174.2 697.744 171.1 704.544 169.1C711.344 166.9 718.544 165.7 726.144 165.5C733.744 165.3 741.144 166.1 748.344 167.9C757.544 169.5 764.944 172.7 770.544 177.5C776.144 182.3 780.344 188.1 783.144 194.9C786.144 201.7 787.944 209.2 788.544 217.4C789.144 225.6 789.144 233.9 788.544 242.3C787.144 242.7 784.444 243.1 780.444 243.5C776.644 243.9 772.044 244.3 766.644 244.7C761.444 245.1 755.844 245.4 749.844 245.6C743.844 245.8 738.044 245.9 732.444 245.9C727.044 245.9 722.144 245.8 717.744 245.6ZM752.844 206.3C750.844 202.7 748.044 200 744.444 198.2C742.844 197.2 741.244 196.5 739.644 196.1C738.044 195.5 736.144 195.2 733.944 195.2C729.144 195.2 725.244 195.7 722.244 196.7C719.244 197.7 716.844 199.1 715.044 200.9C713.244 202.7 711.844 204.8 710.844 207.2C710.044 209.6 709.444 212.1 709.044 214.7C708.644 216.9 708.444 218.5 708.444 219.5C708.644 220.3 709.644 220.9 711.444 221.3C713.244 221.5 716.044 221.6 719.844 221.6C723.844 221.4 729.644 221.3 737.244 221.3C742.444 221.3 746.344 221.4 748.944 221.6C751.544 221.8 753.344 221.9 754.344 221.9C755.544 221.7 756.144 221.4 756.144 221C756.144 220.4 756.144 219.3 756.144 217.7C756.144 213.7 755.044 209.9 752.844 206.3ZM833.345 109.1C838.145 109.3 845.045 109.3 854.045 109.1H861.245V110.3C861.245 127.5 860.945 144.8 860.345 162.2C859.945 179.6 859.545 197.1 859.145 214.7C858.945 232.1 858.945 249.5 859.145 266.9C859.345 284.3 859.945 301.5 860.945 318.5C859.345 320.1 855.945 321 850.745 321.2C845.745 321.6 840.245 321.7 834.245 321.5C828.445 321.3 822.845 321 817.445 320.6C812.045 320.4 808.345 320.6 806.345 321.2C807.745 303.2 808.345 285.1 808.145 266.9C807.945 248.7 807.545 230.7 806.945 212.9C806.545 194.9 806.245 177.2 806.045 159.8C806.045 142.2 806.945 125 808.745 108.2V107.6C809.745 107.4 811.645 107.5 814.445 107.9C817.445 108.1 819.645 108.2 821.045 108.2C824.645 108.4 828.745 108.7 833.345 109.1ZM926.874 115.1C930.274 115.3 933.674 115.2 937.074 114.8V155C937.074 157.6 937.074 160.3 937.074 163.1C937.274 165.9 937.374 168.8 937.374 171.8C943.574 171.6 950.074 171.3 956.874 170.9C963.874 170.5 972.474 170 982.674 169.4C984.074 171 984.874 173.4 985.074 176.6C985.274 179.6 985.274 182.9 985.074 186.5C984.874 190.1 984.574 193.8 984.174 197.6C983.974 201.2 984.074 204.3 984.474 206.9H937.974C937.974 217.7 937.974 228.3 937.974 238.7C937.974 248.9 938.074 258.5 938.274 267.5C940.274 270.3 943.174 272.5 946.974 274.1C950.774 275.7 954.874 277 959.274 278C963.674 278.8 968.074 279.3 972.474 279.5C977.074 279.7 981.074 279.7 984.474 279.5C984.874 282.3 985.274 285.4 985.674 288.8C986.074 292.2 986.374 295.7 986.574 299.3C986.774 302.9 986.674 306.5 986.274 310.1C986.074 313.7 985.474 317 984.474 320C976.474 320.4 968.174 320.4 959.574 320C950.974 319.4 942.874 318.2 935.274 316.4C927.674 314.6 920.874 311.9 914.874 308.3C909.074 304.7 904.874 299.8 902.274 293.6C899.674 278.2 898.174 263.7 897.774 250.1C897.374 236.3 897.274 222.1 897.474 207.5C894.274 207.7 890.874 207.8 887.274 207.8C883.874 207.8 880.074 207.8 875.874 207.8L876.774 171.2C880.774 171.4 884.474 171.5 887.874 171.5C891.474 171.5 894.874 171.5 898.074 171.5C898.074 167.1 897.974 162.4 897.774 157.4C897.574 152.2 897.474 147 897.474 141.8C897.474 136.6 897.474 131.6 897.474 126.8C897.674 122 897.974 117.7 898.374 113.9C900.974 113.5 903.774 113.4 906.774 113.6C909.974 113.8 913.274 114.1 916.674 114.5C920.074 114.7 923.474 114.9 926.874 115.1Z" fill="white"/>
</svg>
