<svg width="1092" height="1165" viewBox="0 0 1092 1165" fill="none" xmlns="http://www.w3.org/2000/svg">
<rect x="0.478516" width="1090.52" height="1165" fill="black"/>
<line x1="102" y1="244" x2="670.493" y2="244" stroke="#FCD0F4" stroke-width="58"/>
<line x1="468" y1="781" x2="872" y2="781" stroke="#FCD0F4" stroke-width="58"/>
<line x1="926" y1="946" x2="986" y2="946" stroke="#FCD0F4" stroke-width="58"/>
<path d="M247.871 664.4C252.271 672 255.971 679.9 258.971 688.1H259.271C252.271 688.1 244.471 688.4 235.871 689C227.271 689.4 218.471 689.3 209.471 688.7H209.171C207.171 684.1 204.671 678.6 201.671 672.2C198.671 665.8 195.371 659.1 191.771 652.1C188.171 645.1 184.271 638.2 180.071 631.4C175.871 624.6 171.671 618.6 167.471 613.4L166.871 612.5C166.271 617.1 165.971 622.8 165.971 629.6C165.971 636.2 166.071 643.1 166.271 650.3C166.671 657.3 167.071 664 167.471 670.4C167.871 676.8 168.171 681.9 168.371 685.7C164.971 687.1 160.471 688 154.871 688.4C149.471 688.8 144.071 689 138.671 689C133.271 689.2 128.371 689.2 123.971 689C119.771 688.8 117.171 688.8 116.171 689C116.571 689 116.871 686.3 117.071 680.9C117.271 675.3 117.371 668 117.371 659C117.371 650 117.371 639.7 117.371 628.1C117.371 616.3 117.271 604.2 117.071 591.8C117.071 579.2 116.871 566.8 116.471 554.6C116.271 542.2 116.071 530.9 115.871 520.7C115.671 510.3 115.371 501.5 114.971 494.3C114.771 486.9 114.471 481.9 114.071 479.3C125.271 477.7 137.571 476.2 150.971 474.8C164.371 473.4 178.371 473.5 192.971 475.1C204.771 475.7 215.371 479.1 224.771 485.3C234.171 491.5 241.471 499.2 246.671 508.4C251.871 517.6 254.571 527.8 254.771 539C255.171 550 252.271 560.7 246.071 571.1C242.271 578.3 237.171 584.3 230.771 589.1C224.571 593.9 216.671 596.6 207.071 597.2H205.871H205.571V597.5C209.771 604.9 214.371 612.3 219.371 619.7C224.371 626.9 229.271 634.2 234.071 641.6C238.871 649 243.471 656.6 247.871 664.4ZM178.571 516.8C171.771 517 164.871 518.5 157.871 521.3C158.071 523.9 158.171 526.9 158.171 530.3C158.371 533.5 158.471 536.8 158.471 540.2C158.471 543.6 158.471 546.9 158.471 550.1C158.671 553.3 158.971 556 159.371 558.2H159.671C164.271 558.6 169.271 558.9 174.671 559.1C180.071 559.3 185.171 559 189.971 558.2C193.771 557.4 196.671 555.5 198.671 552.5C200.871 549.3 202.171 545.9 202.571 542.3C202.971 538.5 202.571 534.8 201.371 531.2C200.171 527.4 198.171 524.4 195.371 522.2C190.971 518.2 185.371 516.4 178.571 516.8ZM290.345 538.1C294.945 538.3 300.445 538.3 306.845 538.1H311.945V539C311.745 563.2 311.245 587.9 310.445 613.1C309.845 638.3 310.245 663 311.645 687.2C310.645 688.4 308.145 689 304.145 689C300.145 689.2 295.745 689.2 290.945 689C286.345 689 281.945 688.9 277.745 688.7C273.545 688.5 270.745 688.6 269.345 689C270.345 676.4 270.745 663.6 270.545 650.6C270.545 637.6 270.345 624.7 269.945 611.9C269.545 599.1 269.345 586.5 269.345 574.1C269.345 561.5 269.945 549.3 271.145 537.5V537.2C271.945 537 273.245 537 275.045 537.2C277.045 537.4 278.545 537.5 279.545 537.5C282.145 537.7 285.745 537.9 290.345 538.1ZM270.245 496.1C269.845 489.7 269.745 481.9 269.945 472.7L310.745 473.6C310.745 474.8 310.745 477 310.745 480.2C310.945 483.2 311.045 486.6 311.045 490.4C311.245 494 311.345 497.8 311.345 501.8C311.545 505.6 311.645 509 311.645 512C310.845 513.2 308.945 514 305.945 514.4C303.145 514.8 299.745 515 295.745 515C291.945 514.8 287.845 514.6 283.445 514.4C279.045 514 274.945 513.9 271.145 514.1C271.145 508.3 270.845 502.3 270.245 496.1ZM410.054 490.7C410.254 488.5 410.454 485.4 410.654 481.4V478.1C410.654 477.9 411.954 477.7 414.554 477.5C417.354 477.1 420.654 476.9 424.454 476.9C428.454 476.7 432.654 476.7 437.054 476.9C441.454 476.9 445.254 477.2 448.454 477.8V497.6C448.454 531 448.954 564 449.954 596.6C450.954 629.2 451.054 659.9 450.254 688.7C444.054 688.7 437.254 688.8 429.854 689C422.454 689.4 415.754 689.2 409.754 688.4C409.554 688 409.454 687.3 409.454 686.3C409.454 684.3 409.354 682.7 409.154 681.5C409.154 680.3 409.154 678.6 409.154 676.4C408.754 675.4 408.254 674.7 407.654 674.3C407.254 673.7 406.754 674 406.154 675.2C403.154 681.2 399.154 685.1 394.154 686.9C389.154 688.5 383.854 688.9 378.254 688.1C366.854 687.3 357.854 684.4 351.254 679.4C344.654 674.2 339.654 667.7 336.254 659.9C333.054 651.9 330.854 643 329.654 633.2C328.654 623.4 328.054 613.5 327.854 603.5C327.854 596.5 328.254 589.7 329.054 583.1C330.054 576.5 331.454 570.5 333.254 565.1C335.254 559.5 337.754 554.8 340.754 551C343.954 547 347.754 544.2 352.154 542.6C357.554 540.6 363.454 539.4 369.854 539C376.454 538.4 382.654 538.4 388.454 539C394.254 539.4 399.154 540.3 403.154 541.7C407.154 543.1 409.354 544.7 409.754 546.5C409.554 537.1 409.454 529.5 409.454 523.7C409.454 517.9 409.454 513.3 409.454 509.9C409.454 506.3 409.454 503.6 409.454 501.8C409.654 499.8 409.754 498 409.754 496.4C409.954 494.6 410.054 492.7 410.054 490.7ZM372.854 578.6C368.054 582.2 365.154 587.5 364.154 594.5C363.154 597.3 362.554 600.2 362.354 603.2C362.154 606.2 362.054 609.1 362.054 611.9C362.054 616.9 362.654 621.8 363.854 626.6C365.054 631.2 366.854 635.4 369.254 639.2C371.654 642.8 374.554 645.7 377.954 647.9C381.354 650.1 385.154 651.2 389.354 651.2C394.354 651.2 398.254 650.1 401.054 647.9C404.054 645.7 406.254 642.7 407.654 638.9C409.254 635.1 410.154 630.6 410.354 625.4C410.754 620 410.954 614.1 410.954 607.7C410.954 599.9 410.754 593.8 410.354 589.4C410.154 584.8 409.454 581.3 408.254 578.9C407.054 576.5 405.154 575 402.554 574.4C400.154 573.6 396.854 573.2 392.654 573.2C384.454 573.2 377.854 575 372.854 578.6ZM548.921 490.7C549.121 488.5 549.321 485.4 549.521 481.4V478.1C549.521 477.9 550.821 477.7 553.421 477.5C556.221 477.1 559.521 476.9 563.321 476.9C567.321 476.7 571.521 476.7 575.921 476.9C580.321 476.9 584.121 477.2 587.321 477.8V497.6C587.321 531 587.821 564 588.821 596.6C589.821 629.2 589.921 659.9 589.121 688.7C582.921 688.7 576.121 688.8 568.721 689C561.321 689.4 554.621 689.2 548.621 688.4C548.421 688 548.321 687.3 548.321 686.3C548.321 684.3 548.221 682.7 548.021 681.5C548.021 680.3 548.021 678.6 548.021 676.4C547.621 675.4 547.121 674.7 546.521 674.3C546.121 673.7 545.621 674 545.021 675.2C542.021 681.2 538.021 685.1 533.021 686.9C528.021 688.5 522.721 688.9 517.121 688.1C505.721 687.3 496.721 684.4 490.121 679.4C483.521 674.2 478.521 667.7 475.121 659.9C471.921 651.9 469.721 643 468.521 633.2C467.521 623.4 466.921 613.5 466.721 603.5C466.721 596.5 467.121 589.7 467.921 583.1C468.921 576.5 470.321 570.5 472.121 565.1C474.121 559.5 476.621 554.8 479.621 551C482.821 547 486.621 544.2 491.021 542.6C496.421 540.6 502.321 539.4 508.721 539C515.321 538.4 521.521 538.4 527.321 539C533.121 539.4 538.021 540.3 542.021 541.7C546.021 543.1 548.221 544.7 548.621 546.5C548.421 537.1 548.321 529.5 548.321 523.7C548.321 517.9 548.321 513.3 548.321 509.9C548.321 506.3 548.321 503.6 548.321 501.8C548.521 499.8 548.621 498 548.621 496.4C548.821 494.6 548.921 492.7 548.921 490.7ZM511.721 578.6C506.921 582.2 504.021 587.5 503.021 594.5C502.021 597.3 501.421 600.2 501.221 603.2C501.021 606.2 500.921 609.1 500.921 611.9C500.921 616.9 501.521 621.8 502.721 626.6C503.921 631.2 505.721 635.4 508.121 639.2C510.521 642.8 513.421 645.7 516.821 647.9C520.221 650.1 524.021 651.2 528.221 651.2C533.221 651.2 537.121 650.1 539.921 647.9C542.921 645.7 545.121 642.7 546.521 638.9C548.121 635.1 549.021 630.6 549.221 625.4C549.621 620 549.821 614.1 549.821 607.7C549.821 599.9 549.621 593.8 549.221 589.4C549.021 584.8 548.321 581.3 547.121 578.9C545.921 576.5 544.021 575 541.421 574.4C539.021 573.6 535.721 573.2 531.521 573.2C523.321 573.2 516.721 575 511.721 578.6ZM608.288 525.5C608.288 507.3 609.188 489.1 610.988 470.9L651.788 471.8C651.788 480 651.688 489.9 651.488 501.5C651.288 513.1 651.088 525.5 650.888 538.7C650.688 551.9 650.488 565.6 650.288 579.8C650.288 594 650.288 607.7 650.288 620.9C650.288 634.1 650.388 646.5 650.588 658.1C650.788 669.5 651.088 679.2 651.488 687.2C650.488 688.4 647.988 689 643.988 689C639.988 689.2 635.588 689.2 630.788 689C626.188 689 621.788 688.9 617.588 688.7C613.388 688.5 610.588 688.6 609.188 689C610.588 671 611.088 652.9 610.688 634.7C610.488 616.5 610.088 598.3 609.488 580.1C608.888 561.9 608.488 543.7 608.288 525.5ZM717.505 614.6C713.105 614.4 709.905 614.1 707.905 613.7V619.1C708.105 625.1 708.305 630 708.505 633.8C708.905 637.6 710.205 641.3 712.405 644.9C714.805 649.5 718.205 652.9 722.605 655.1C727.005 657.3 731.305 658 735.505 657.2C739.705 656.4 743.205 654 746.005 650C749.005 645.8 750.305 639.6 749.905 631.4C751.905 631.6 754.605 631.7 758.005 631.7C761.405 631.5 764.905 631.3 768.505 631.1C772.305 630.9 775.905 630.9 779.305 631.1C782.705 631.1 785.505 631.4 787.705 632C787.305 637.2 786.905 642.3 786.505 647.3C786.105 652.3 785.605 657 785.005 661.4C784.405 665.6 783.605 669.3 782.605 672.5C781.805 675.5 780.705 677.6 779.305 678.8C775.905 683.6 771.505 687 766.105 689C760.705 691 754.805 692.2 748.405 692.6C742.005 693 735.405 693 728.605 692.6C722.005 692.2 715.905 692 710.305 692C704.705 691.2 699.505 689.4 694.705 686.6C689.305 682.8 684.805 677.9 681.205 671.9C677.605 665.7 674.705 659 672.505 651.8C670.305 644.4 668.805 636.6 668.005 628.4C667.205 620.2 667.005 612 667.405 603.8C668.005 596.4 668.605 589.3 669.205 582.5C670.005 575.5 671.605 568.7 674.005 562.1C676.605 556.3 680.605 551.4 686.005 547.4C691.405 543.2 697.505 540.1 704.305 538.1C711.105 535.9 718.305 534.7 725.905 534.5C733.505 534.3 740.905 535.1 748.105 536.9C757.305 538.5 764.705 541.7 770.305 546.5C775.905 551.3 780.105 557.1 782.905 563.9C785.905 570.7 787.705 578.2 788.305 586.4C788.905 594.6 788.905 602.9 788.305 611.3C786.905 611.7 784.205 612.1 780.205 612.5C776.405 612.9 771.805 613.3 766.405 613.7C761.205 614.1 755.605 614.4 749.605 614.6C743.605 614.8 737.805 614.9 732.205 614.9C726.805 614.9 721.905 614.8 717.505 614.6ZM752.605 575.3C750.605 571.7 747.805 569 744.205 567.2C742.605 566.2 741.005 565.5 739.405 565.1C737.805 564.5 735.905 564.2 733.705 564.2C728.905 564.2 725.005 564.7 722.005 565.7C719.005 566.7 716.605 568.1 714.805 569.9C713.005 571.7 711.605 573.8 710.605 576.2C709.805 578.6 709.205 581.1 708.805 583.7C708.405 585.9 708.205 587.5 708.205 588.5C708.405 589.3 709.405 589.9 711.205 590.3C713.005 590.5 715.805 590.6 719.605 590.6C723.605 590.4 729.405 590.3 737.005 590.3C742.205 590.3 746.105 590.4 748.705 590.6C751.305 590.8 753.105 590.9 754.105 590.9C755.305 590.7 755.905 590.4 755.905 590C755.905 589.4 755.905 588.3 755.905 586.7C755.905 582.7 754.805 578.9 752.605 575.3ZM833.106 478.1C837.906 478.3 844.806 478.3 853.806 478.1H861.006V479.3C861.006 496.5 860.706 513.8 860.106 531.2C859.706 548.6 859.306 566.1 858.906 583.7C858.706 601.1 858.706 618.5 858.906 635.9C859.106 653.3 859.706 670.5 860.706 687.5C859.106 689.1 855.706 690 850.506 690.2C845.506 690.6 840.006 690.7 834.006 690.5C828.206 690.3 822.606 690 817.206 689.6C811.806 689.4 808.106 689.6 806.106 690.2C807.506 672.2 808.106 654.1 807.906 635.9C807.706 617.7 807.306 599.7 806.706 581.9C806.306 563.9 806.006 546.2 805.806 528.8C805.806 511.2 806.706 494 808.506 477.2V476.6C809.506 476.4 811.406 476.5 814.206 476.9C817.206 477.1 819.406 477.2 820.806 477.2C824.406 477.4 828.506 477.7 833.106 478.1ZM926.635 484.1C930.035 484.3 933.435 484.2 936.835 483.8V524C936.835 526.6 936.835 529.3 936.835 532.1C937.035 534.9 937.135 537.8 937.135 540.8C943.335 540.6 949.835 540.3 956.635 539.9C963.635 539.5 972.235 539 982.435 538.4C983.835 540 984.635 542.4 984.835 545.6C985.035 548.6 985.035 551.9 984.835 555.5C984.635 559.1 984.335 562.8 983.935 566.6C983.735 570.2 983.835 573.3 984.235 575.9H937.735C937.735 586.7 937.735 597.3 937.735 607.7C937.735 617.9 937.835 627.5 938.035 636.5C940.035 639.3 942.935 641.5 946.735 643.1C950.535 644.7 954.635 646 959.035 647C963.435 647.8 967.835 648.3 972.235 648.5C976.835 648.7 980.835 648.7 984.235 648.5C984.635 651.3 985.035 654.4 985.435 657.8C985.835 661.2 986.135 664.7 986.335 668.3C986.535 671.9 986.435 675.5 986.035 679.1C985.835 682.7 985.235 686 984.235 689C976.235 689.4 967.935 689.4 959.335 689C950.735 688.4 942.635 687.2 935.035 685.4C927.435 683.6 920.635 680.9 914.635 677.3C908.835 673.7 904.635 668.8 902.035 662.6C899.435 647.2 897.935 632.7 897.535 619.1C897.135 605.3 897.035 591.1 897.235 576.5C894.035 576.7 890.635 576.8 887.035 576.8C883.635 576.8 879.835 576.8 875.635 576.8L876.535 540.2C880.535 540.4 884.235 540.5 887.635 540.5C891.235 540.5 894.635 540.5 897.835 540.5C897.835 536.1 897.735 531.4 897.535 526.4C897.335 521.2 897.235 516 897.235 510.8C897.235 505.6 897.235 500.6 897.235 495.8C897.435 491 897.735 486.7 898.135 482.9C900.735 482.5 903.535 482.4 906.535 482.6C909.735 482.8 913.035 483.1 916.435 483.5C919.835 483.7 923.235 483.9 926.635 484.1Z" fill="white"/>
</svg>
