<svg width="1705" height="925" viewBox="0 0 1705 925" fill="none" xmlns="http://www.w3.org/2000/svg">
<rect x="109" width="1596" height="925" fill="black"/>
<path d="M499.61 544.4C504.01 552 507.71 559.9 510.71 568.1H511.01C504.01 568.1 496.21 568.4 487.61 569C479.01 569.4 470.21 569.3 461.21 568.7H460.91C458.91 564.1 456.41 558.6 453.41 552.2C450.41 545.8 447.11 539.1 443.51 532.1C439.91 525.1 436.01 518.2 431.81 511.4C427.61 504.6 423.41 498.6 419.21 493.4L418.61 492.5C418.01 497.1 417.71 502.8 417.71 509.6C417.71 516.2 417.81 523.1 418.01 530.3C418.41 537.3 418.81 544 419.21 550.4C419.61 556.8 419.91 561.9 420.11 565.7C416.71 567.1 412.21 568 406.61 568.4C401.21 568.8 395.81 569 390.41 569C385.01 569.2 380.11 569.2 375.71 569C371.51 568.8 368.91 568.8 367.91 569C368.31 569 368.61 566.3 368.81 560.9C369.01 555.3 369.11 548 369.11 539C369.11 530 369.11 519.7 369.11 508.1C369.11 496.3 369.01 484.2 368.81 471.8C368.81 459.2 368.61 446.8 368.21 434.6C368.01 422.2 367.81 410.9 367.61 400.7C367.41 390.3 367.11 381.5 366.71 374.3C366.51 366.9 366.21 361.9 365.81 359.3C377.01 357.7 389.31 356.2 402.71 354.8C416.11 353.4 430.11 353.5 444.71 355.1C456.51 355.7 467.11 359.1 476.51 365.3C485.91 371.5 493.21 379.2 498.41 388.4C503.61 397.6 506.31 407.8 506.51 419C506.91 430 504.01 440.7 497.81 451.1C494.01 458.3 488.91 464.3 482.51 469.1C476.31 473.9 468.41 476.6 458.81 477.2H457.61H457.31V477.5C461.51 484.9 466.11 492.3 471.11 499.7C476.11 506.9 481.01 514.2 485.81 521.6C490.61 529 495.21 536.6 499.61 544.4ZM430.31 396.8C423.51 397 416.61 398.5 409.61 401.3C409.81 403.9 409.91 406.9 409.91 410.3C410.11 413.5 410.21 416.8 410.21 420.2C410.21 423.6 410.21 426.9 410.21 430.1C410.41 433.3 410.71 436 411.11 438.2H411.41C416.01 438.6 421.01 438.9 426.41 439.1C431.81 439.3 436.91 439 441.71 438.2C445.51 437.4 448.41 435.5 450.41 432.5C452.61 429.3 453.91 425.9 454.31 422.3C454.71 418.5 454.31 414.8 453.11 411.2C451.91 407.4 449.91 404.4 447.11 402.2C442.71 398.2 437.11 396.4 430.31 396.8ZM542.084 418.1C546.684 418.3 552.184 418.3 558.584 418.1H563.684V419C563.484 443.2 562.984 467.9 562.184 493.1C561.584 518.3 561.984 543 563.384 567.2C562.384 568.4 559.884 569 555.884 569C551.884 569.2 547.484 569.2 542.684 569C538.084 569 533.684 568.9 529.484 568.7C525.284 568.5 522.484 568.6 521.084 569C522.084 556.4 522.484 543.6 522.284 530.6C522.284 517.6 522.084 504.7 521.684 491.9C521.284 479.1 521.084 466.5 521.084 454.1C521.084 441.5 521.684 429.3 522.884 417.5V417.2C523.684 417 524.984 417 526.784 417.2C528.784 417.4 530.284 417.5 531.284 417.5C533.884 417.7 537.484 417.9 542.084 418.1ZM521.984 376.1C521.584 369.7 521.484 361.9 521.684 352.7L562.484 353.6C562.484 354.8 562.484 357 562.484 360.2C562.684 363.2 562.784 366.6 562.784 370.4C562.984 374 563.084 377.8 563.084 381.8C563.284 385.6 563.384 389 563.384 392C562.584 393.2 560.684 394 557.684 394.4C554.884 394.8 551.484 395 547.484 395C543.684 394.8 539.584 394.6 535.184 394.4C530.784 394 526.684 393.9 522.884 394.1C522.884 388.3 522.584 382.3 521.984 376.1ZM661.793 370.7C661.993 368.5 662.193 365.4 662.393 361.4V358.1C662.393 357.9 663.693 357.7 666.293 357.5C669.093 357.1 672.393 356.9 676.193 356.9C680.193 356.7 684.393 356.7 688.793 356.9C693.193 356.9 696.993 357.2 700.193 357.8V377.6C700.193 411 700.693 444 701.693 476.6C702.693 509.2 702.793 539.9 701.993 568.7C695.793 568.7 688.993 568.8 681.593 569C674.193 569.4 667.493 569.2 661.493 568.4C661.293 568 661.193 567.3 661.193 566.3C661.193 564.3 661.093 562.7 660.893 561.5C660.893 560.3 660.893 558.6 660.893 556.4C660.493 555.4 659.993 554.7 659.393 554.3C658.993 553.7 658.493 554 657.893 555.2C654.893 561.2 650.893 565.1 645.893 566.9C640.893 568.5 635.593 568.9 629.993 568.1C618.593 567.3 609.593 564.4 602.993 559.4C596.393 554.2 591.393 547.7 587.993 539.9C584.793 531.9 582.593 523 581.393 513.2C580.393 503.4 579.793 493.5 579.593 483.5C579.593 476.5 579.993 469.7 580.793 463.1C581.793 456.5 583.193 450.5 584.993 445.1C586.993 439.5 589.493 434.8 592.493 431C595.693 427 599.493 424.2 603.893 422.6C609.293 420.6 615.193 419.4 621.593 419C628.193 418.4 634.393 418.4 640.193 419C645.993 419.4 650.893 420.3 654.893 421.7C658.893 423.1 661.093 424.7 661.493 426.5C661.293 417.1 661.193 409.5 661.193 403.7C661.193 397.9 661.193 393.3 661.193 389.9C661.193 386.3 661.193 383.6 661.193 381.8C661.393 379.8 661.493 378 661.493 376.4C661.693 374.6 661.793 372.7 661.793 370.7ZM624.593 458.6C619.793 462.2 616.893 467.5 615.893 474.5C614.893 477.3 614.293 480.2 614.093 483.2C613.893 486.2 613.793 489.1 613.793 491.9C613.793 496.9 614.393 501.8 615.593 506.6C616.793 511.2 618.593 515.4 620.993 519.2C623.393 522.8 626.293 525.7 629.693 527.9C633.093 530.1 636.893 531.2 641.093 531.2C646.093 531.2 649.993 530.1 652.793 527.9C655.793 525.7 657.993 522.7 659.393 518.9C660.993 515.1 661.893 510.6 662.093 505.4C662.493 500 662.693 494.1 662.693 487.7C662.693 479.9 662.493 473.8 662.093 469.4C661.893 464.8 661.193 461.3 659.993 458.9C658.793 456.5 656.893 455 654.293 454.4C651.893 453.6 648.593 453.2 644.393 453.2C636.193 453.2 629.593 455 624.593 458.6ZM800.66 370.7C800.86 368.5 801.06 365.4 801.26 361.4V358.1C801.26 357.9 802.56 357.7 805.16 357.5C807.96 357.1 811.26 356.9 815.06 356.9C819.06 356.7 823.26 356.7 827.66 356.9C832.06 356.9 835.86 357.2 839.06 357.8V377.6C839.06 411 839.56 444 840.56 476.6C841.56 509.2 841.66 539.9 840.86 568.7C834.66 568.7 827.86 568.8 820.46 569C813.06 569.4 806.36 569.2 800.36 568.4C800.16 568 800.06 567.3 800.06 566.3C800.06 564.3 799.96 562.7 799.76 561.5C799.76 560.3 799.76 558.6 799.76 556.4C799.36 555.4 798.86 554.7 798.26 554.3C797.86 553.7 797.36 554 796.76 555.2C793.76 561.2 789.76 565.1 784.76 566.9C779.76 568.5 774.46 568.9 768.86 568.1C757.46 567.3 748.46 564.4 741.86 559.4C735.26 554.2 730.26 547.7 726.86 539.9C723.66 531.9 721.46 523 720.26 513.2C719.26 503.4 718.66 493.5 718.46 483.5C718.46 476.5 718.86 469.7 719.66 463.1C720.66 456.5 722.06 450.5 723.86 445.1C725.86 439.5 728.36 434.8 731.36 431C734.56 427 738.36 424.2 742.76 422.6C748.16 420.6 754.06 419.4 760.46 419C767.06 418.4 773.26 418.4 779.06 419C784.86 419.4 789.76 420.3 793.76 421.7C797.76 423.1 799.96 424.7 800.36 426.5C800.16 417.1 800.06 409.5 800.06 403.7C800.06 397.9 800.06 393.3 800.06 389.9C800.06 386.3 800.06 383.6 800.06 381.8C800.26 379.8 800.36 378 800.36 376.4C800.56 374.6 800.66 372.7 800.66 370.7ZM763.46 458.6C758.66 462.2 755.76 467.5 754.76 474.5C753.76 477.3 753.16 480.2 752.96 483.2C752.76 486.2 752.66 489.1 752.66 491.9C752.66 496.9 753.26 501.8 754.46 506.6C755.66 511.2 757.46 515.4 759.86 519.2C762.26 522.8 765.16 525.7 768.56 527.9C771.96 530.1 775.76 531.2 779.96 531.2C784.96 531.2 788.86 530.1 791.66 527.9C794.66 525.7 796.86 522.7 798.26 518.9C799.86 515.1 800.76 510.6 800.96 505.4C801.36 500 801.56 494.1 801.56 487.7C801.56 479.9 801.36 473.8 800.96 469.4C800.76 464.8 800.06 461.3 798.86 458.9C797.66 456.5 795.76 455 793.16 454.4C790.76 453.6 787.46 453.2 783.26 453.2C775.06 453.2 768.46 455 763.46 458.6ZM860.027 405.5C860.027 387.3 860.927 369.1 862.727 350.9L903.527 351.8C903.527 360 903.427 369.9 903.227 381.5C903.027 393.1 902.827 405.5 902.627 418.7C902.427 431.9 902.227 445.6 902.027 459.8C902.027 474 902.027 487.7 902.027 500.9C902.027 514.1 902.127 526.5 902.327 538.1C902.527 549.5 902.827 559.2 903.227 567.2C902.227 568.4 899.727 569 895.727 569C891.727 569.2 887.327 569.2 882.527 569C877.927 569 873.527 568.9 869.327 568.7C865.127 568.5 862.327 568.6 860.927 569C862.327 551 862.827 532.9 862.427 514.7C862.227 496.5 861.827 478.3 861.227 460.1C860.627 441.9 860.227 423.7 860.027 405.5ZM969.244 494.6C964.844 494.4 961.644 494.1 959.644 493.7V499.1C959.844 505.1 960.044 510 960.244 513.8C960.644 517.6 961.944 521.3 964.144 524.9C966.544 529.5 969.944 532.9 974.344 535.1C978.744 537.3 983.044 538 987.244 537.2C991.444 536.4 994.944 534 997.744 530C1000.74 525.8 1002.04 519.6 1001.64 511.4C1003.64 511.6 1006.34 511.7 1009.74 511.7C1013.14 511.5 1016.64 511.3 1020.24 511.1C1024.04 510.9 1027.64 510.9 1031.04 511.1C1034.44 511.1 1037.24 511.4 1039.44 512C1039.04 517.2 1038.64 522.3 1038.24 527.3C1037.84 532.3 1037.34 537 1036.74 541.4C1036.14 545.6 1035.34 549.3 1034.34 552.5C1033.54 555.5 1032.44 557.6 1031.04 558.8C1027.64 563.6 1023.24 567 1017.84 569C1012.44 571 1006.54 572.2 1000.14 572.6C993.744 573 987.144 573 980.344 572.6C973.744 572.2 967.644 572 962.044 572C956.444 571.2 951.244 569.4 946.444 566.6C941.044 562.8 936.544 557.9 932.944 551.9C929.344 545.7 926.444 539 924.244 531.8C922.044 524.4 920.544 516.6 919.744 508.4C918.944 500.2 918.744 492 919.144 483.8C919.744 476.4 920.344 469.3 920.944 462.5C921.744 455.5 923.344 448.7 925.744 442.1C928.344 436.3 932.344 431.4 937.744 427.4C943.144 423.2 949.244 420.1 956.044 418.1C962.844 415.9 970.044 414.7 977.644 414.5C985.244 414.3 992.644 415.1 999.844 416.9C1009.04 418.5 1016.44 421.7 1022.04 426.5C1027.64 431.3 1031.84 437.1 1034.64 443.9C1037.64 450.7 1039.44 458.2 1040.04 466.4C1040.64 474.6 1040.64 482.9 1040.04 491.3C1038.64 491.7 1035.94 492.1 1031.94 492.5C1028.14 492.9 1023.54 493.3 1018.14 493.7C1012.94 494.1 1007.34 494.4 1001.34 494.6C995.344 494.8 989.544 494.9 983.944 494.9C978.544 494.9 973.644 494.8 969.244 494.6ZM1004.34 455.3C1002.34 451.7 999.544 449 995.944 447.2C994.344 446.2 992.744 445.5 991.144 445.1C989.544 444.5 987.644 444.2 985.444 444.2C980.644 444.2 976.744 444.7 973.744 445.7C970.744 446.7 968.344 448.1 966.544 449.9C964.744 451.7 963.344 453.8 962.344 456.2C961.544 458.6 960.944 461.1 960.544 463.7C960.144 465.9 959.944 467.5 959.944 468.5C960.144 469.3 961.144 469.9 962.944 470.3C964.744 470.5 967.544 470.6 971.344 470.6C975.344 470.4 981.144 470.3 988.744 470.3C993.944 470.3 997.844 470.4 1000.44 470.6C1003.04 470.8 1004.84 470.9 1005.84 470.9C1007.04 470.7 1007.64 470.4 1007.64 470C1007.64 469.4 1007.64 468.3 1007.64 466.7C1007.64 462.7 1006.54 458.9 1004.34 455.3ZM1084.84 358.1C1089.64 358.3 1096.54 358.3 1105.54 358.1H1112.74V359.3C1112.74 376.5 1112.44 393.8 1111.84 411.2C1111.44 428.6 1111.04 446.1 1110.64 463.7C1110.44 481.1 1110.44 498.5 1110.64 515.9C1110.84 533.3 1111.44 550.5 1112.44 567.5C1110.84 569.1 1107.44 570 1102.24 570.2C1097.24 570.6 1091.74 570.7 1085.74 570.5C1079.94 570.3 1074.34 570 1068.94 569.6C1063.54 569.4 1059.84 569.6 1057.84 570.2C1059.24 552.2 1059.84 534.1 1059.64 515.9C1059.44 497.7 1059.04 479.7 1058.44 461.9C1058.04 443.9 1057.74 426.2 1057.54 408.8C1057.54 391.2 1058.44 374 1060.24 357.2V356.6C1061.24 356.4 1063.14 356.5 1065.94 356.9C1068.94 357.1 1071.14 357.2 1072.54 357.2C1076.14 357.4 1080.24 357.7 1084.84 358.1ZM1178.37 364.1C1181.77 364.3 1185.17 364.2 1188.57 363.8V404C1188.57 406.6 1188.57 409.3 1188.57 412.1C1188.77 414.9 1188.87 417.8 1188.87 420.8C1195.07 420.6 1201.57 420.3 1208.37 419.9C1215.37 419.5 1223.97 419 1234.17 418.4C1235.57 420 1236.37 422.4 1236.57 425.6C1236.77 428.6 1236.77 431.9 1236.57 435.5C1236.37 439.1 1236.07 442.8 1235.67 446.6C1235.47 450.2 1235.57 453.3 1235.97 455.9H1189.47C1189.47 466.7 1189.47 477.3 1189.47 487.7C1189.47 497.9 1189.57 507.5 1189.77 516.5C1191.77 519.3 1194.67 521.5 1198.47 523.1C1202.27 524.7 1206.37 526 1210.77 527C1215.17 527.8 1219.57 528.3 1223.97 528.5C1228.57 528.7 1232.57 528.7 1235.97 528.5C1236.37 531.3 1236.77 534.4 1237.17 537.8C1237.57 541.2 1237.87 544.7 1238.07 548.3C1238.27 551.9 1238.17 555.5 1237.77 559.1C1237.57 562.7 1236.97 566 1235.97 569C1227.97 569.4 1219.67 569.4 1211.07 569C1202.47 568.4 1194.37 567.2 1186.77 565.4C1179.17 563.6 1172.37 560.9 1166.37 557.3C1160.57 553.7 1156.37 548.8 1153.77 542.6C1151.17 527.2 1149.67 512.7 1149.27 499.1C1148.87 485.3 1148.77 471.1 1148.97 456.5C1145.77 456.7 1142.37 456.8 1138.77 456.8C1135.37 456.8 1131.57 456.8 1127.37 456.8L1128.27 420.2C1132.27 420.4 1135.97 420.5 1139.37 420.5C1142.97 420.5 1146.37 420.5 1149.57 420.5C1149.57 416.1 1149.47 411.4 1149.27 406.4C1149.07 401.2 1148.97 396 1148.97 390.8C1148.97 385.6 1148.97 380.6 1148.97 375.8C1149.17 371 1149.47 366.7 1149.87 362.9C1152.47 362.5 1155.27 362.4 1158.27 362.6C1161.47 362.8 1164.77 363.1 1168.17 363.5C1171.57 363.7 1174.97 363.9 1178.37 364.1Z" fill="white"/>
<line x1="1289" y1="462.5" x2="1400" y2="462.5" stroke="#FCD0F4" strokeWidth="87"/>
<line x1="568" y1="252" x2="1400" y2="252" stroke="#FCD0F4" strokeWidth="18"/>
</svg>
